<svg width="107" height="199" viewBox="0 0 107 199" fill="none" xmlns="http://www.w3.org/2000/svg">
<path d="M83.8926 2.88298C83.3858 2.22772 83.506 1.28562 84.1613 0.77874C84.8166 0.271859 85.7587 0.392141 86.2655 1.0474L83.8926 2.88298ZM1.13186 191.244C0.424478 190.813 0.200559 189.89 0.631724 189.182L7.65795 177.655C8.08912 176.947 9.01209 176.723 9.71947 177.155C10.4269 177.586 10.6508 178.509 10.2196 179.216L3.97407 189.463L14.2207 195.708C14.9281 196.14 15.152 197.062 14.7208 197.77C14.2897 198.477 13.3667 198.701 12.6593 198.27L1.13186 191.244ZM89.5581 5.59384C90.0228 6.27968 89.8435 7.21235 89.1577 7.67701C88.4718 8.14168 87.5392 7.96238 87.0745 7.27654L89.5581 5.59384ZM92.6044 16.6137C92.2253 15.877 92.5152 14.9726 93.2519 14.5936C93.9885 14.2146 94.8929 14.5045 95.272 15.2411L92.6044 16.6137ZM99.8229 25.4822C100.117 26.2568 99.7267 27.1229 98.952 27.4165C98.1774 27.7102 97.3114 27.3202 97.0177 26.5456L99.8229 25.4822ZM100.324 36.9094C100.114 36.1081 100.593 35.2882 101.394 35.0782C102.196 34.8682 103.016 35.3475 103.226 36.1489L100.324 36.9094ZM105.511 47.0971C105.64 47.9155 105.081 48.6833 104.262 48.812C103.444 48.9408 102.676 48.3818 102.547 47.5634L105.511 47.0971ZM103.721 58.4001C103.671 57.5732 104.301 56.8624 105.128 56.8124C105.954 56.7625 106.665 57.3923 106.715 58.2193L103.721 58.4001ZM106.871 69.3892C106.845 70.2173 106.152 70.867 105.324 70.8406C104.496 70.8141 103.846 70.1214 103.873 69.2934L106.871 69.3892ZM103.032 80.1665C103.133 79.3443 103.882 78.7594 104.704 78.8602C105.526 78.961 106.111 79.7093 106.01 80.5316L103.032 80.1665ZM104.16 91.5471C103.987 92.3572 103.19 92.8736 102.38 92.7004C101.57 92.5272 101.053 91.7301 101.227 90.92L104.16 91.5471ZM98.4795 101.475C98.7232 100.683 99.5626 100.239 100.354 100.483C101.146 100.726 101.59 101.566 101.347 102.357L98.4795 101.475ZM97.5954 112.878C97.2831 113.645 96.408 114.014 95.6406 113.702C94.8733 113.39 94.5044 112.515 94.8166 111.747L97.5954 112.878ZM90.2653 121.658C90.6439 120.921 91.5481 120.631 92.285 121.01C93.0219 121.388 93.3123 122.292 92.9338 123.029L90.2653 121.658ZM87.3964 132.728C86.9543 133.429 86.0279 133.638 85.3273 133.196C84.6268 132.754 84.4173 131.828 84.8594 131.127L87.3964 132.728ZM78.6341 140.085C79.1366 139.427 80.0778 139.3 80.7365 139.803C81.3952 140.305 81.5219 141.246 81.0194 141.905L78.6341 140.085ZM73.8646 150.472C73.306 151.084 72.3572 151.127 71.7454 150.568C71.1336 150.01 71.0905 149.061 71.649 148.449L73.8646 150.472ZM63.9417 156.18C64.5517 155.619 65.5006 155.659 66.0611 156.269C66.6216 156.879 66.5815 157.828 65.9715 158.389L63.9417 156.18ZM57.4376 165.575C56.7817 166.081 55.8397 165.96 55.3338 165.304C54.8278 164.648 54.9494 163.706 55.6054 163.2L57.4376 165.575ZM46.6966 169.49C47.3927 169.041 48.3211 169.241 48.7703 169.937C49.2194 170.634 49.0193 171.562 48.3232 172.011L46.6966 169.49ZM38.6971 177.679C37.9668 178.07 37.0577 177.796 36.6665 177.065C36.2753 176.335 36.5501 175.426 37.2804 175.035L38.6971 177.679ZM27.4556 179.813C28.214 179.48 29.0991 179.824 29.4324 180.583C29.7658 181.341 29.4213 182.226 28.6629 182.56L27.4556 179.813ZM18.3141 186.658C17.5333 186.935 16.676 186.526 16.3992 185.745C16.1224 184.964 16.5311 184.107 17.3119 183.83L18.3141 186.658ZM6.89249 187.117C7.69061 186.895 8.51759 187.362 8.7396 188.161C8.9616 188.959 8.49456 189.786 7.69644 190.008L6.89249 187.117ZM86.2655 1.0474C87.4097 2.52643 88.5073 4.04277 89.5581 5.59384L87.0745 7.27654C86.0585 5.7769 84.9977 4.31157 83.8926 2.88298L86.2655 1.0474ZM95.272 15.2411C96.9728 18.5467 98.4904 21.967 99.8229 25.4822L97.0177 26.5456C95.7242 23.1332 94.2522 19.8163 92.6044 16.6137L95.272 15.2411ZM103.226 36.1489C104.165 39.7323 104.927 43.3877 105.511 47.0971L102.547 47.5634C101.979 43.9512 101.237 40.394 100.324 36.9094L103.226 36.1489ZM106.715 58.2193C106.938 61.9132 106.991 65.642 106.871 69.3892L103.873 69.2934C103.99 65.6376 103.938 62.0011 103.721 58.4001L106.715 58.2193ZM106.01 80.5316C105.56 84.2059 104.944 87.8828 104.16 91.5471L101.227 90.92C101.991 87.3424 102.593 83.753 103.032 80.1665L106.01 80.5316ZM101.347 102.357C100.258 105.895 99.008 109.407 97.5954 112.878L94.8166 111.747C96.1959 108.358 97.4163 104.929 98.4795 101.475L101.347 102.357ZM92.9338 123.029C91.2442 126.318 89.399 129.555 87.3964 132.728L84.8594 131.127C86.8144 128.03 88.6158 124.869 90.2653 121.658L92.9338 123.029ZM81.0194 141.905C78.7831 144.837 76.3986 147.696 73.8646 150.472L71.649 148.449C74.1231 145.739 76.451 142.948 78.6341 140.085L81.0194 141.905ZM65.9715 158.389C63.2651 160.875 60.4208 163.274 57.4376 165.575L55.6054 163.2C58.5203 160.952 61.2986 158.608 63.9417 156.18L65.9715 158.389ZM48.3232 172.011C45.2401 174 42.0317 175.893 38.6971 177.679L37.2804 175.035C40.5437 173.286 43.6821 171.435 46.6966 169.49L48.3232 172.011ZM28.6629 182.56C25.3239 184.027 21.8746 185.396 18.3141 186.658L17.3119 183.83C20.8037 182.593 24.1846 181.251 27.4556 179.813L28.6629 182.56ZM7.69644 190.008C5.91133 190.504 4.10128 190.975 2.2662 191.421L1.5589 188.505C3.36186 188.068 5.13969 187.605 6.89249 187.117L7.69644 190.008Z" fill="#16C6D8"/>
</svg>
