<svg width="459" height="531" viewBox="0 0 459 531" fill="none" xmlns="http://www.w3.org/2000/svg">
<path d="M305.55 3.87187L166.728 41.0691C117.547 54.247 88.3306 104.851 101.509 154.032L113.445 198.578L68.899 210.514C19.7181 223.692 -9.49823 274.296 3.67973 323.477L40.8769 462.298C54.0549 511.479 104.659 540.696 153.84 527.518L292.662 490.32C341.843 477.143 371.059 426.538 357.881 377.357L345.945 332.812L390.491 320.876C439.671 307.698 468.888 257.094 455.71 207.913L418.513 69.0911C405.335 19.9103 354.73 -9.30608 305.55 3.87187ZM306.029 391.251C311.523 411.756 299.273 432.974 278.768 438.469L139.946 475.666C119.441 481.16 98.2232 468.91 92.7289 448.405L55.5317 309.583C50.0374 289.078 62.2876 267.86 82.7926 262.366L127.338 250.43L160.728 241.483L160.77 241.64L222.207 225.178L160.293 329.424L160.121 329.723C154.14 340.083 154.967 352.913 162.229 362.419C169.492 371.925 181.715 376.059 193.264 372.965L293.747 346.041L293.915 346.669L293.993 346.648L305.951 391.272L306.029 391.251ZM403.858 221.807C409.352 242.312 397.102 263.53 376.597 269.024L332.051 280.96L280.199 294.854L280.121 294.875L280.163 295.032L235.067 307.115L297.692 201.752L297.864 201.453C303.731 191.293 302.945 178.62 295.725 169.271C288.583 159.901 276.559 155.882 265.246 158.913L165.549 185.627L165.296 184.684L153.361 140.138C147.866 119.633 160.116 98.4154 180.621 92.9211L319.443 55.7238C339.948 50.2295 361.166 62.4797 366.661 82.9848L403.858 221.807V221.807Z" fill="#E9F0FF"/>
</svg>
