<svg width="70" height="70" viewBox="0 0 70 70" fill="none" xmlns="http://www.w3.org/2000/svg">
<rect width="70" height="70" rx="10" fill="#1C97E6"/>
<rect width="70" height="70" rx="10" fill="url(#paint0_linear_46_554)"/>
<path d="M58.0089 41.9717C53.2644 45.9442 48.52 49.9167 43.7605 53.8742C42.9798 54.5212 42.0939 54.6717 41.1781 54.2353C40.2622 53.814 39.7968 53.0616 39.7968 52.0384C39.7968 50.4885 39.7968 48.9236 39.7968 47.2985C39.5416 47.2834 39.3314 47.2684 39.1212 47.2684C38.3855 47.2383 37.6498 47.2985 36.9441 47.1931C35.743 47.0126 34.9172 45.8991 35.0073 44.6802C35.0974 43.5065 36.0583 42.4984 37.2444 42.4683C38.941 42.4231 40.6526 42.4231 42.3642 42.4683C43.5803 42.4984 44.5262 43.5065 44.5863 44.7404C44.6163 45.4326 44.5863 46.1097 44.5863 46.9524C47.4089 44.605 50.0965 42.3479 52.844 40.0607C50.0965 37.7735 47.4089 35.5164 44.5863 33.169C44.5863 33.8611 44.5863 34.4179 44.5863 34.9596C44.5713 36.7051 43.6554 37.638 41.9138 37.638C38.2654 37.638 34.6019 37.638 30.9535 37.638H30.2178C30.2028 37.8788 30.1878 38.0744 30.1878 38.27C30.1878 39.6093 30.1728 40.9334 30.1878 42.2726C30.2028 43.3561 29.7824 44.1837 28.7765 44.6351C27.8156 45.0715 26.9147 44.8608 26.119 44.1987C21.4046 40.2262 16.6901 36.2988 11.9757 32.3414C10.6995 31.273 10.6695 29.6027 11.9457 28.5344C16.6901 24.5619 21.4646 20.5743 26.2241 16.6018C27.0048 15.9547 27.8906 15.8043 28.7915 16.2406C29.7374 16.677 30.1878 17.4595 30.1878 18.4978C30.1878 19.852 30.1878 21.2063 30.1878 22.5455V23.2076C31.0286 23.2076 31.7943 23.1925 32.545 23.2076C34.3617 23.2678 35.5028 25.0133 34.7671 26.6083C34.3467 27.5111 33.626 27.9927 32.6351 28.0077C31.0136 28.0378 29.377 28.0378 27.7405 28.0077C26.4343 27.9927 25.4433 26.9845 25.4133 25.6754C25.3983 25.0133 25.4133 24.3361 25.4133 23.5236C22.5907 25.871 19.9031 28.1281 17.1556 30.4153C19.9031 32.7025 22.5907 34.9596 25.4133 37.307C25.4133 36.5847 25.4133 35.9828 25.4133 35.396C25.4283 33.801 26.3742 32.8379 27.9657 32.8229C31.6592 32.8229 35.3526 32.8229 39.0461 32.8229H39.7818C39.7968 32.5821 39.8118 32.3865 39.8118 32.1909C39.8118 30.8517 39.8268 29.5275 39.8118 28.1883C39.7968 27.135 40.2022 26.3074 41.1631 25.8559C42.139 25.3895 43.0548 25.5851 43.8806 26.2773C48.58 30.2046 53.2945 34.132 57.9939 38.0744C59.3151 39.203 59.3451 40.8582 58.0089 41.9717Z" fill="white"/>
<defs>
<linearGradient id="paint0_linear_46_554" x1="0" y1="70" x2="70" y2="0" gradientUnits="userSpaceOnUse">
<stop stop-color="#2E57FD"/>
<stop offset="1" stop-color="#1CD4DC"/>
</linearGradient>
</defs>
</svg>
