<svg width="70" height="70" viewBox="0 0 70 70" fill="none" xmlns="http://www.w3.org/2000/svg">
<rect width="70" height="70" rx="10" fill="#1C97E6"/>
<rect width="70" height="70" rx="10" fill="url(#paint0_linear_46_563)"/>
<path d="M54.7375 14.4843C54.625 13.7934 54.2375 13.3072 53.5875 13.0897C52.9 12.8594 52.3 13.0385 51.7875 13.5503C49.4875 15.8916 47.1875 18.2458 44.9 20.6C44.6125 20.8943 44.3875 20.9326 44.0125 20.7791C37.775 18.2842 31.55 18.361 25.375 21.0222C20.875 22.9669 17.2 26.0248 14.1875 29.9271C12.9375 31.5904 11.6375 33.2409 11 35.288V36.4395C11.1875 36.9129 11.325 37.4118 11.5625 37.8469C12.875 40.1498 14.4125 42.2737 16.2375 44.1673C17.1625 45.1141 18.1375 46.0097 19.1125 46.9437C19.025 47.046 18.925 47.1612 18.8125 47.2635C16.6875 49.4258 14.575 51.6008 12.45 53.7631C12.35 53.8655 12.25 53.9678 12.15 54.0702C11.6875 54.5947 11.575 55.1961 11.8 55.8486C12.0125 56.4883 12.475 56.8721 13.1375 56.9745C13.8375 57.1024 14.3625 56.757 14.8375 56.2708C26.1 44.7558 37.3625 33.2409 48.6375 21.7387C50.4625 19.8707 52.275 18.0155 54.1125 16.1603C54.5625 15.6869 54.85 15.1624 54.7375 14.4843ZM37.7875 27.8544C37.6875 27.9568 37.4125 27.9568 37.25 27.9056C34.1625 27.0995 31.4375 27.7776 29.2125 30.1062C27.05 32.358 26.4375 35.0961 27.225 38.1411C27.3 38.4354 27.2875 38.6273 27.0625 38.8576C26.2875 39.6125 25.5375 40.4057 24.775 41.199C22.75 37.463 22.8875 31.6799 26.775 27.6369C30.65 23.5939 36.3375 23.2612 40.2375 25.4107C39.4 26.2423 38.6125 27.0612 37.7875 27.8544Z" fill="white"/>
<path d="M58.9999 35.288V36.4395C58.3374 38.5122 57.0249 40.1882 55.7249 41.8515C52.4624 46.0481 48.4624 49.2467 43.5124 51.1275C37.5499 53.3921 31.5999 53.2641 25.6999 50.8204C25.5874 50.7692 25.4749 50.718 25.3499 50.6669C25.3249 50.6541 25.3124 50.6157 25.2749 50.5773C25.3499 50.4877 25.4249 50.3982 25.5124 50.3086C26.7624 49.0292 28.0124 47.7625 29.2499 46.4703C29.4499 46.2656 29.5999 46.2528 29.8499 46.3679C36.7249 49.784 44.6749 45.8434 46.2874 38.2179C46.8374 35.6078 46.4999 33.0745 45.3499 30.682C45.1999 30.3621 45.1999 30.1702 45.4624 29.9143C47.0874 28.2766 48.6874 26.6262 50.3124 24.9757C50.4124 24.8733 50.5124 24.7838 50.6749 24.6174C51.6124 25.5002 52.5749 26.3319 53.4624 27.2403C55.3874 29.1978 57.0124 31.3857 58.3874 33.791C58.6499 34.2644 58.7999 34.789 58.9999 35.288Z" fill="white"/>
<path d="M40.6626 41.7876C38.0626 44.3849 34.4251 44.5896 32.2251 43.6044C35.6751 40.086 39.1376 36.5419 42.5751 33.0234C43.5626 35.3776 43.3126 39.1264 40.6626 41.7876Z" fill="white"/>
<defs>
<linearGradient id="paint0_linear_46_563" x1="0" y1="70" x2="70" y2="0" gradientUnits="userSpaceOnUse">
<stop stop-color="#2E57FD"/>
<stop offset="1" stop-color="#1CD4DC"/>
</linearGradient>
</defs>
</svg>
