<svg width="24" height="24" viewBox="0 0 24 24" fill="none" xmlns="http://www.w3.org/2000/svg">
<path d="M20.0275 4.57077C20.021 4.55814 20.0101 4.54824 19.9968 4.54285C18.4653 3.84491 16.8491 3.34723 15.1887 3.06226C15.1736 3.05947 15.158 3.06148 15.1441 3.068C15.1303 3.07452 15.1188 3.08521 15.1114 3.09857C14.8913 3.49531 14.6915 3.90282 14.5128 4.31955C12.723 4.04969 10.9023 4.04969 9.11254 4.31955C8.93263 3.90176 8.72966 3.49414 8.50451 3.09857C8.49679 3.0855 8.48529 3.07505 8.4715 3.06858C8.45771 3.0621 8.44228 3.0599 8.42722 3.06226C6.76661 3.34663 5.15031 3.84435 3.61899 4.54288C3.60587 4.5484 3.59481 4.55783 3.58733 4.56986C0.524976 9.11217 -0.313918 13.5428 0.0976148 17.9186C0.0987728 17.9293 0.10209 17.9397 0.107369 17.9491C0.112649 17.9585 0.119783 17.9668 0.128348 17.9734C1.91152 19.2848 3.90603 20.2858 6.02676 20.9337C6.04169 20.9381 6.05764 20.938 6.07245 20.9332C6.08728 20.9283 6.10024 20.9191 6.10964 20.9068C6.56512 20.2912 6.96872 19.6393 7.31632 18.9579C7.32109 18.9485 7.32381 18.9382 7.32431 18.9278C7.32481 18.9173 7.32307 18.9069 7.3192 18.8971C7.31533 18.8873 7.30943 18.8785 7.30187 18.8711C7.29432 18.8638 7.28529 18.8582 7.27538 18.8546C6.63894 18.6127 6.02279 18.3212 5.43272 17.9826C5.422 17.9764 5.41299 17.9676 5.40651 17.9571C5.40002 17.9465 5.39624 17.9345 5.3955 17.9222C5.39476 17.9099 5.3971 17.8976 5.4023 17.8864C5.40749 17.8751 5.41539 17.8654 5.42529 17.8579C5.5491 17.7658 5.67299 17.6699 5.79123 17.5731C5.80173 17.5645 5.81444 17.559 5.82792 17.5572C5.84141 17.5554 5.85513 17.5574 5.86756 17.5629C9.73337 19.3152 13.9186 19.3152 17.7387 17.5629C17.7512 17.557 17.765 17.5547 17.7787 17.5564C17.7924 17.5581 17.8053 17.5636 17.816 17.5722C17.9343 17.669 18.0581 17.7658 18.1828 17.8579C18.1928 17.8653 18.2007 17.875 18.2061 17.8862C18.2113 17.8973 18.2138 17.9097 18.2131 17.922C18.2125 17.9343 18.2088 17.9463 18.2024 17.9569C18.1959 17.9674 18.187 17.9763 18.1763 17.9826C17.5876 18.324 16.9709 18.6154 16.3328 18.8536C16.3229 18.8574 16.3139 18.8632 16.3064 18.8706C16.2989 18.8781 16.293 18.887 16.2892 18.8968C16.2855 18.9067 16.2838 18.9172 16.2843 18.9277C16.2849 18.9382 16.2878 18.9485 16.2927 18.9579C16.6461 19.6355 17.049 20.2865 17.4984 20.9056C17.5075 20.9183 17.5204 20.9278 17.5353 20.9329C17.5502 20.9379 17.5662 20.9381 17.5813 20.9336C19.7058 20.2879 21.7038 19.2868 23.4891 17.9734C23.4979 17.9671 23.5051 17.959 23.5104 17.9498C23.5157 17.9404 23.519 17.9302 23.5199 17.9195C24.0126 12.8607 22.6951 8.46633 20.0275 4.57077ZM7.89364 15.2542C6.72975 15.2542 5.77073 14.1934 5.77073 12.8904C5.77073 11.5876 6.71115 10.5266 7.89364 10.5266C9.08537 10.5266 10.0351 11.5968 10.0165 12.8904C10.0165 14.1934 9.07603 15.2542 7.89364 15.2542ZM15.7426 15.2542C14.5788 15.2542 13.6197 14.1934 13.6197 12.8904C13.6197 11.5876 14.5602 10.5266 15.7426 10.5266C16.9345 10.5266 17.8841 11.5968 17.8655 12.8904C17.8655 14.1934 16.9345 15.2542 15.7426 15.2542Z" fill="white"/>
</svg>
