<svg width="24" height="24" viewBox="0 0 24 24" fill="none" xmlns="http://www.w3.org/2000/svg">
<path fill-rule="evenodd" clip-rule="evenodd" d="M21.6203 2.37967C21.0579 1.81726 20.2954 1.5009 19.5 1.5H4.5C3.70463 1.5009 2.94209 1.81726 2.37967 2.37967C1.81726 2.94209 1.5009 3.70463 1.5 4.5V19.5C1.5009 20.2954 1.81726 21.0579 2.37967 21.6203C2.94209 22.1827 3.70463 22.4991 4.5 22.5H19.5C20.2954 22.4991 21.0579 22.1827 21.6203 21.6203C22.1827 21.0579 22.4991 20.2954 22.5 19.5V4.5C22.4991 3.70463 22.1827 2.94209 21.6203 2.37967ZM4.5 0H19.5C20.6924 0.00349029 21.835 0.478717 22.6781 1.32188C23.5213 2.16503 23.9965 3.3076 24 4.5V19.5C23.9965 20.6924 23.5213 21.835 22.6781 22.6781C21.835 23.5213 20.6924 23.9965 19.5 24H4.5C3.3076 23.9965 2.16503 23.5213 1.32188 22.6781C0.478717 21.835 0.00349029 20.6924 0 19.5V4.5C0.00349029 3.3076 0.478717 2.16503 1.32188 1.32188C2.16503 0.478717 3.3076 0.00349029 4.5 0ZM17.2743 10.3061C17.0375 10.8465 16.6855 11.3285 16.2428 11.7185C16.8219 12.1368 17.2911 12.6892 17.6102 13.3283C17.9293 13.9675 18.0889 14.6744 18.0753 15.3887C18.0753 18.1689 15.8278 20.1868 12.7311 20.1868H6.77802V3.81348H12.3737C15.5078 3.81348 17.6135 5.73315 17.6135 8.59033C17.6268 9.18015 17.5111 9.76575 17.2743 10.3061ZM12.5206 13.5781H10.3332V16.8828H12.4371C13.4236 16.8828 14.4776 16.4573 14.4776 15.2627C14.4776 13.8704 13.4134 13.5781 12.5206 13.5781ZM10.3332 10.3159H12.1434C13.3288 10.3159 14.0363 9.71021 14.0363 8.6958C14.0363 7.27197 12.6535 7.11816 12.0588 7.11816H10.3332V10.3159Z" fill="white"/>
</svg>
