<svg width="24" height="24" viewBox="0 0 24 24" fill="none" xmlns="http://www.w3.org/2000/svg">
<path d="M22.05 6.89987C22.275 6.37487 22.875 4.34987 21.825 1.57487C21.825 1.57487 20.25 1.04987 16.65 3.67487C15.15 3.22487 13.575 3.14987 11.925 3.14987C10.35 3.14987 8.7 3.22487 7.2 3.67487C3.75 0.974871 2.175 1.57487 2.175 1.57487C1.125 4.34987 1.725 6.37487 1.95 6.89987C0.75 8.32487 0 10.0499 0 12.2999C0 20.6249 5.025 22.4999 12 22.4999C18.975 22.4999 24 20.6249 24 12.2999C24 10.0499 23.25 8.32487 22.05 6.89987ZM12 20.9249C7.05 20.9249 3 20.6999 3 15.5249C3 14.3249 3.6 13.1249 4.5 12.2249C6.075 10.6499 8.85 11.4749 11.925 11.4749C15 11.4749 17.775 10.6499 19.35 12.2249C20.325 13.1999 20.925 14.3249 20.925 15.5249C21 20.6249 16.95 20.9249 12 20.9249ZM8.25 12.8249C7.275 12.8249 6.45 14.0999 6.45 15.6749C6.45 17.2499 7.275 18.5999 8.25 18.5999C9.225 18.5999 10.05 17.3249 10.05 15.6749C10.05 14.0999 9.225 12.8249 8.25 12.8249ZM15.75 12.8249C14.775 12.8249 13.95 14.0999 13.95 15.6749C13.95 17.2499 14.775 18.5999 15.75 18.5999C16.725 18.5999 17.55 17.3249 17.55 15.6749C17.55 14.0999 16.8 12.8249 15.75 12.8249Z" fill="white"/>
</svg>
