<svg width="24" height="24" viewBox="0 0 24 24" fill="none" xmlns="http://www.w3.org/2000/svg">
<path d="M2.85 6.225C2.85 5.925 2.775 5.625 2.55 5.4L0.3 2.625V2.25H7.275L12.675 14.325L17.4 2.25H24V2.7L22.05 4.575C21.9 4.725 21.825 4.95 21.825 5.1V18.9C21.825 19.125 21.9 19.35 22.05 19.425L23.925 21.3V21.75H14.55V21.3L16.5 19.35C16.725 19.2 16.725 19.125 16.725 18.825V7.725L11.25 21.675H10.5L4.275 7.725V17.1C4.2 17.475 4.35 17.85 4.65 18.15L7.2 21.3V21.675H0V21.3L2.55 18.15C2.85 17.85 2.925 17.475 2.85 17.1V6.225Z" fill="white"/>
</svg>
