<svg width="24" height="24" viewBox="0 0 24 24" fill="none" xmlns="http://www.w3.org/2000/svg">
<path d="M11.9988 8.19524L17.7485 18.1698H6.24903L11.9988 8.19524ZM11.9988 1.29788C11.628 1.29585 11.2634 1.39253 10.9424 1.57801C10.6214 1.76349 10.3556 2.03107 10.1722 2.35328L0.283197 19.5086C0.0984378 19.8291 0.00127402 20.1926 0.00146513 20.5626C0.00165623 20.9325 0.0991955 21.2959 0.284286 21.6163C0.469376 21.9366 0.735499 22.2026 1.05593 22.3875C1.37635 22.5724 1.7398 22.6698 2.10976 22.6698H21.8878C22.2577 22.6698 22.6212 22.5724 22.9416 22.3875C23.262 22.2026 23.5282 21.9366 23.7132 21.6163C23.8983 21.2959 23.9959 20.9325 23.9961 20.5626C23.9963 20.1926 23.8991 19.8291 23.7143 19.5086L13.8253 2.35328C13.6419 2.03108 13.3761 1.7635 13.0551 1.57802C12.7341 1.39254 12.3695 1.29585 11.9988 1.29788Z" fill="white"/>
</svg>
