<svg width="24" height="24" viewBox="0 0 24 24" fill="none" xmlns="http://www.w3.org/2000/svg">
<g clip-path="url(#clip0_46_382)">
<path fill-rule="evenodd" clip-rule="evenodd" d="M18.375 21.5251C18.675 21.7501 19.125 21.8251 19.5 21.6751C19.875 21.5251 20.1 21.2251 20.25 20.8501C21.15 16.8751 23.25 6.82513 24 3.15013C24.075 2.85013 23.925 2.62513 23.7 2.40013C23.475 2.25013 23.175 2.17513 22.875 2.25013C18.75 3.82513 5.85 8.55013 0.525 10.4251C0.225 10.5751 0 10.8751 0 11.2501C0 11.6251 0.225 11.9251 0.6 12.0001C3 12.6751 6.075 13.6501 6.075 13.6501C6.075 13.6501 7.5 17.9251 8.325 20.1001C8.4 20.4001 8.625 20.6251 8.925 20.6251C9.225 20.7001 9.525 20.6251 9.75 20.4001C10.95 19.2751 12.825 17.5501 12.825 17.5501C12.825 17.5501 16.35 20.1001 18.375 21.5251ZM7.35 13.0501L9 18.4501L9.375 15.0001C9.375 15.0001 15.825 9.30013 19.575 6.07513C19.65 6.00013 19.725 5.85013 19.65 5.70013C19.575 5.62513 19.425 5.55013 19.275 5.62513L7.35 13.0501Z" fill="white"/>
</g>
<defs>
<clipPath id="clip0_46_382">
<rect width="24" height="24" fill="white"/>
</clipPath>
</defs>
</svg>
