<svg width="24" height="24" viewBox="0 0 24 24" fill="none" xmlns="http://www.w3.org/2000/svg">
<g clip-path="url(#clip0_46_374)">
<path d="M23.3249 4.725C23.1749 4.725 23.0999 4.8 22.9499 4.8C22.1999 4.95 22.1249 4.725 22.6499 4.2C22.8749 3.975 23.0999 3.675 23.2499 3.45C23.6249 2.85 23.3249 2.55 22.6499 2.85C22.4249 2.925 22.1249 3.075 21.8999 3.15C21.2249 3.375 20.1749 3 19.5749 2.625C18.7499 2.1 17.8499 1.875 16.8749 1.875C15.4499 1.875 14.2499 2.4 13.2749 3.375C12.2999 4.35 11.7749 5.55 11.7749 6.975C11.7749 7.2 11.7749 7.35 11.7749 7.575C11.7749 7.875 11.2499 8.1 10.4999 8.025C8.92489 7.8 7.34989 7.35 5.92489 6.6C4.49989 5.85 3.22489 4.95 2.17489 3.825C1.64989 3.3 0.974889 3.375 0.749889 4.05C0.599889 4.5 0.599889 4.95 0.599889 5.4C0.599889 6.3 0.824889 7.125 1.19989 7.8C1.42489 8.175 1.64989 8.475 1.94989 8.775C2.39989 9.3 2.32489 9.6 1.72489 9.375C1.04989 9.225 0.599889 8.925 0.599889 8.925C0.599889 10.125 0.974889 11.25 1.79989 12.15C2.24989 12.75 2.84989 13.2 3.44989 13.5C4.12489 13.8 4.42489 14.025 4.04989 14.025C3.74989 14.25 3.52489 14.25 3.29989 14.25C3.14989 14.25 2.99989 14.25 2.84989 14.25C2.54989 14.25 2.54989 14.775 2.92489 15.375C3.22489 15.9 3.67489 16.275 4.12489 16.65C4.64989 17.025 5.17489 17.325 5.77489 17.475C6.52489 17.7 6.59989 18.075 5.99989 18.45C4.42489 19.425 2.69989 19.875 0.749889 19.875C0.524889 19.875 0.299888 19.875 0.149888 19.875C-0.225112 19.875 -0.000111533 20.175 0.674889 20.475C2.77489 21.525 4.94989 22.125 7.34989 22.125C9.14989 22.125 10.8749 21.825 12.4499 21.3C14.0249 20.7 15.4499 19.95 16.5749 18.975C17.6999 18 18.6749 16.875 19.4999 15.675C20.3249 14.4 20.9249 13.125 21.2999 11.775C21.6749 10.425 21.8999 9.075 21.8999 7.65C21.8999 7.5 21.8999 7.425 21.8999 7.35C21.8999 7.2 22.3499 6.675 22.9499 6.15C23.1749 5.925 23.3999 5.7 23.6249 5.4C24.2249 4.8 23.9999 4.5 23.3249 4.725Z" fill="white"/>
</g>
<defs>
<clipPath id="clip0_46_374">
<rect width="24" height="24" fill="white"/>
</clipPath>
</defs>
</svg>
