<svg width="32" height="28" viewBox="0 0 32 28" fill="none" xmlns="http://www.w3.org/2000/svg">
<g clip-path="url(#clip0_46_601)">
<path d="M30.7143 11.9759C29.4036 10.9943 27.4083 11.0164 26.0976 12.035C26.0308 12.0866 25.9556 12.1457 25.8722 12.2047C23.1004 10.5366 20.0031 9.78378 16.6303 9.65093C17.2565 7.13402 17.8659 4.63188 18.492 2.10021C19.2267 2.24783 19.9447 2.39545 20.6543 2.53569C21.8231 2.77188 22.9836 3.00807 24.1524 3.23688C24.3611 3.27378 24.4279 3.34759 24.4529 3.5395C24.6366 4.77212 25.6551 5.62093 27.0076 5.67259C28.2515 5.72426 29.4036 4.91236 29.6875 3.78307C29.9713 2.66855 29.3034 1.50974 28.1263 1.06688C26.9408 0.616643 25.5967 0.98569 24.8703 1.97474C24.7451 2.1445 24.6366 2.20355 24.4028 2.15926C22.3658 1.74593 20.3287 1.34736 18.2833 0.941405C17.749 0.838071 17.4819 0.98569 17.365 1.46545C16.8474 3.56902 16.3298 5.67259 15.8038 7.76878C15.6702 8.31497 15.52 8.86116 15.4031 9.41473C15.3613 9.6214 15.2528 9.67307 15.0274 9.68045C12.4477 9.79854 9.99322 10.3521 7.69736 11.415C7.17975 11.6512 6.67049 11.9464 6.13619 12.2269C5.65197 11.7914 5.06757 11.4888 4.38299 11.3412C2.39603 10.9131 0.45917 12.035 0.0667884 13.8359C0.0500913 13.9097 0.0250457 13.9762 0 14.0426V14.8693C0.0417428 15.0316 0.0834855 15.1866 0.141925 15.349C0.417428 16.1609 0.976781 16.7809 1.81164 17.2016C1.95356 17.2754 2.02035 17.3419 1.9953 17.5043C1.56118 19.63 2.16228 21.5343 3.62327 23.2393C5.09262 24.9516 7.03783 26.1178 9.29194 26.8707C13.9755 28.4354 18.659 28.3912 23.2925 26.6935C25.4965 25.889 27.3832 24.6785 28.7441 22.9145C30.0214 21.2612 30.5557 19.4528 30.0798 17.4674C30.0297 17.2681 30.1717 17.2312 30.2969 17.1574C32.3757 16.0059 32.5927 13.3857 30.7143 11.9759ZM7.47195 17.6371C7.46361 16.3012 8.6491 15.2309 10.1435 15.2309C11.6045 15.2309 12.79 16.2938 12.7983 17.6224C12.7983 18.9214 11.6128 19.9916 10.1602 19.999C8.67415 20.0138 7.4803 18.9583 7.47195 17.6371ZM21.8732 23.3204C21.03 24.0364 19.9864 24.435 18.8677 24.6343C17.9243 24.804 16.9643 24.8852 16.0042 25.0033C16.0042 24.9812 15.9958 24.959 15.9875 24.9295C14.3512 24.9147 12.7482 24.7154 11.2789 24.029C10.8448 23.8223 10.4524 23.5419 10.0684 23.254C9.7845 23.04 9.8179 22.7004 10.0684 22.4643C10.2854 22.2576 10.6778 22.2133 10.9199 22.42C11.8132 23.1581 12.9236 23.4533 14.084 23.6157C15.8873 23.8666 17.6739 23.8076 19.4187 23.2835C20.0031 23.1064 20.5458 22.8554 21.005 22.479C21.3055 22.2281 21.7062 22.2428 21.9483 22.4864C22.1988 22.7447 22.1821 23.0621 21.8732 23.3204ZM21.8732 20.0064C20.4122 20.0138 19.2267 18.9509 19.2267 17.6445C19.2184 16.3085 20.3955 15.2457 21.8649 15.2457C23.3426 15.2457 24.528 16.2938 24.5447 17.6224C24.5614 18.914 23.3426 20.0064 21.8732 20.0064Z" fill="#BDCCE3"/>
</g>
<defs>
<clipPath id="clip0_46_601">
<rect width="32" height="28" fill="white"/>
</clipPath>
</defs>
</svg>
