<svg width="28" height="28" viewBox="0 0 28 28" fill="none" xmlns="http://www.w3.org/2000/svg">
<g clip-path="url(#clip0_46_597)">
<path d="M27.2126 5.5125C27.0376 5.5125 26.9501 5.6 26.7751 5.6C25.9001 5.775 25.8126 5.5125 26.4251 4.9C26.6876 4.6375 26.9501 4.2875 27.1251 4.025C27.5626 3.325 27.2126 2.975 26.4251 3.325C26.1626 3.4125 25.8126 3.5875 25.5501 3.675C24.7626 3.9375 23.5376 3.5 22.8376 3.0625C21.8751 2.45 20.8251 2.1875 19.6876 2.1875C18.0251 2.1875 16.6251 2.8 15.4876 3.9375C14.3501 5.075 13.7376 6.475 13.7376 8.1375C13.7376 8.4 13.7376 8.575 13.7376 8.8375C13.7376 9.1875 13.1251 9.45 12.2501 9.3625C10.4126 9.1 8.57511 8.575 6.91261 7.7C5.25011 6.825 3.76261 5.775 2.53761 4.4625C1.92511 3.85 1.13761 3.9375 0.875114 4.725C0.700114 5.25 0.700114 5.775 0.700114 6.3C0.700114 7.35 0.962614 8.3125 1.40011 9.1C1.66261 9.5375 1.92511 9.8875 2.27511 10.2375C2.80011 10.85 2.71261 11.2 2.01261 10.9375C1.22511 10.7625 0.700114 10.4125 0.700114 10.4125C0.700114 11.8125 1.13761 13.125 2.10011 14.175C2.62511 14.875 3.32511 15.4 4.02511 15.75C4.81261 16.1 5.16261 16.3625 4.72511 16.3625C4.37511 16.625 4.11261 16.625 3.85011 16.625C3.67511 16.625 3.50011 16.625 3.32511 16.625C2.97511 16.625 2.97511 17.2375 3.41261 17.9375C3.76261 18.55 4.28761 18.9875 4.81261 19.425C5.42511 19.8625 6.03761 20.2125 6.73761 20.3875C7.61261 20.65 7.70011 21.0875 7.00011 21.525C5.16261 22.6625 3.15011 23.1875 0.875114 23.1875C0.612614 23.1875 0.350114 23.1875 0.175114 23.1875C-0.262386 23.1875 0.000114013 23.5375 0.787614 23.8875C3.23761 25.1125 5.77511 25.8125 8.57511 25.8125C10.6751 25.8125 12.6876 25.4625 14.5251 24.85C16.3626 24.15 18.0251 23.275 19.3376 22.1375C20.6501 21 21.7876 19.6875 22.7501 18.2875C23.7126 16.8 24.4126 15.3125 24.8501 13.7375C25.2876 12.1625 25.5501 10.5875 25.5501 8.925C25.5501 8.75 25.5501 8.6625 25.5501 8.575C25.5501 8.4 26.0751 7.7875 26.7751 7.175C27.0376 6.9125 27.3001 6.65 27.5626 6.3C28.2626 5.6 28.0001 5.25 27.2126 5.5125Z" fill="#BDCCE3"/>
</g>
<defs>
<clipPath id="clip0_46_597">
<rect width="28" height="28" fill="white"/>
</clipPath>
</defs>
</svg>
