<svg width="20" height="20" viewBox="0 0 20 20" fill="none" xmlns="http://www.w3.org/2000/svg">
<path d="M18.375 5.74997C18.5625 5.31247 19.0625 3.62497 18.1875 1.31247C18.1875 1.31247 16.875 0.874974 13.875 3.06247C12.625 2.68747 11.3125 2.62497 9.9375 2.62497C8.625 2.62497 7.25 2.68747 6 3.06247C3.125 0.812474 1.8125 1.31247 1.8125 1.31247C0.9375 3.62497 1.4375 5.31247 1.625 5.74997C0.625 6.93747 0 8.37497 0 10.25C0 17.1875 4.1875 18.75 10 18.75C15.8125 18.75 20 17.1875 20 10.25C20 8.37497 19.375 6.93747 18.375 5.74997ZM10 17.4375C5.875 17.4375 2.5 17.25 2.5 12.9375C2.5 11.9375 3 10.9375 3.75 10.1875C5.0625 8.87497 7.375 9.56247 9.9375 9.56247C12.5 9.56247 14.8125 8.87497 16.125 10.1875C16.9375 11 17.4375 11.9375 17.4375 12.9375C17.5 17.1875 14.125 17.4375 10 17.4375ZM6.875 10.6875C6.0625 10.6875 5.375 11.75 5.375 13.0625C5.375 14.375 6.0625 15.5 6.875 15.5C7.6875 15.5 8.375 14.4375 8.375 13.0625C8.375 11.75 7.6875 10.6875 6.875 10.6875ZM13.125 10.6875C12.3125 10.6875 11.625 11.75 11.625 13.0625C11.625 14.375 12.3125 15.5 13.125 15.5C13.9375 15.5 14.625 14.4375 14.625 13.0625C14.625 11.75 14 10.6875 13.125 10.6875Z" fill="white"/>
</svg>
