<svg width="20" height="20" viewBox="0 0 20 20" fill="none" xmlns="http://www.w3.org/2000/svg">
<path d="M13.625 12.75H7.25V10.9375H13.625V12.75ZM16.375 9.0625H7.25V7.25H16.3125L16.375 9.0625ZM16.375 5.4375H7.25V3.625H16.3125L16.375 5.4375ZM18.1875 0H5.4375C4.4375 0 3.625 0.8125 3.625 1.8125V14.5625C3.625 15.5625 4.4375 16.375 5.4375 16.375H18.1875C19.1875 16.375 20 15.5625 20 14.5625V1.8125C20 0.8125 19.1875 0 18.1875 0ZM1.8125 3.625V18.1875H16.375V20H1.8125C0.8125 20 0 19.1875 0 18.1875V3.625H1.8125Z" fill="white"/>
</svg>
