<svg width="100" height="100" viewBox="0 0 100 100" fill="none" xmlns="http://www.w3.org/2000/svg">
<rect width="100" height="100" rx="10" fill="url(#paint0_linear_46_398)"/>
<g clip-path="url(#clip0_46_398)">
<path d="M80.0901 44.2969C77.9922 43.8125 75.8944 43.2656 73.7809 42.7656C73.4051 42.6719 73.1859 42.5156 73.0294 42.1406C72.6223 41.0938 72.1527 40.0781 71.7613 39.0313C71.6674 38.7813 71.683 38.4063 71.8083 38.1875C72.7632 36.5313 73.7652 34.8906 74.7515 33.25C75.4717 32.0313 75.3777 31.3125 74.3758 30.2969C72.7946 28.7188 71.229 27.1406 69.6478 25.5625C68.6771 24.5938 67.9413 24.5 66.7515 25.2188C65.1077 26.2031 63.4638 27.1719 61.8357 28.1719C61.5069 28.375 61.2564 28.375 60.912 28.2188C59.91 27.7656 58.8924 27.3438 57.8748 26.9375C57.4991 26.7969 57.3425 26.5781 57.2486 26.1875C56.7632 24.1094 56.2153 22.0313 55.73 19.9531C55.5108 19.0156 55.0724 18.3125 54.1331 17.9844H45.8826C44.9746 18.3125 44.5206 18.9688 44.3171 19.8906C43.8317 22 43.2838 24.0938 42.7828 26.2031C42.6889 26.5938 42.5323 26.7969 42.1566 26.9531C41.0294 27.3906 39.9492 27.9062 38.822 28.3438C38.5715 28.4375 38.1957 28.4375 37.9765 28.2969C36.2544 27.2969 34.548 26.25 32.8259 25.2344C31.6047 24.5 30.8846 24.5938 29.8826 25.5938C28.2857 27.1719 26.7045 28.75 25.139 30.3281C24.184 31.2813 24.0901 32.0781 24.7789 33.2344C25.8435 35.0156 26.9081 36.8125 27.9883 38.5938C28.1605 38.8906 28.1762 39.125 28.0353 39.4531C27.6439 40.3438 27.2681 41.25 26.9237 42.1719C26.7828 42.5313 26.5793 42.6875 26.2349 42.7656C24.0744 43.2813 21.9139 43.8281 19.7535 44.3594C18.4697 44.6875 17.9844 45.2969 17.9844 46.625C17.9844 48.8906 17.9844 51.1719 17.9844 53.4375C17.9844 54.7031 18.4854 55.3281 19.7378 55.6406C21.8983 56.1719 24.0587 56.7188 26.2192 57.2344C26.6106 57.3281 26.8141 57.5156 26.955 57.875C27.3621 58.9375 27.8161 60 28.2857 61.0313C28.4266 61.3594 28.4266 61.5938 28.2388 61.875C27.2838 63.4375 26.3445 65.0156 25.4051 66.5781C24.7163 67.75 24.8102 68.5156 25.7809 69.4844C27.3621 71.0625 28.9276 72.6406 30.5088 74.2188C31.4951 75.2031 32.2466 75.2969 33.4677 74.5625C35.002 73.6406 36.5519 72.7344 38.0705 71.7969C38.4306 71.5625 38.7124 71.5781 39.0881 71.75C40.0744 72.2031 41.0607 72.6094 42.0783 73C42.4697 73.1406 42.6732 73.3438 42.7672 73.7656C43.2525 75.875 43.8161 77.9688 44.3014 80.0781C44.5206 81 44.9589 81.6719 45.867 81.9844H54.1175C55.0255 81.6563 55.4795 81 55.683 80.0781C56.1683 77.9688 56.7163 75.875 57.2173 73.7813C57.3112 73.3906 57.4677 73.1875 57.8435 73.0313C58.9237 72.6094 60.0039 72.1563 61.0529 71.6719C61.3973 71.5156 61.6478 71.5313 61.9609 71.7344C63.5421 72.7031 65.1233 73.6563 66.7202 74.5938C67.8944 75.2969 68.6771 75.2031 69.6321 74.25C71.229 72.6563 72.8102 71.0781 74.4071 69.4688C75.3621 68.5156 75.456 67.7656 74.7672 66.625C73.7965 65 72.8259 63.375 71.8396 61.7656C71.636 61.4531 71.6204 61.2031 71.7769 60.8594C72.2153 59.875 72.638 58.875 73.0294 57.875C73.1703 57.5 73.3895 57.3281 73.7652 57.25C75.8631 56.75 77.9609 56.2031 80.0744 55.7188C80.9981 55.5 81.6556 55.0469 81.9844 54.1406V45.8906C81.6713 44.9688 81.0137 44.5156 80.0901 44.2969ZM50.0157 63.125C42.7985 63.1406 36.8963 57.2344 36.8807 50.0156C36.865 42.8125 42.7672 36.8906 49.9844 36.875C57.2016 36.8594 63.1038 42.7656 63.1194 49.9844C63.1351 57.1875 57.2329 63.1094 50.0157 63.125Z" fill="white"/>
</g>
<defs>
<linearGradient id="paint0_linear_46_398" x1="0" y1="100" x2="100" y2="0" gradientUnits="userSpaceOnUse">
<stop stop-color="#2E57FD"/>
<stop offset="1" stop-color="#1CD4DC"/>
</linearGradient>
<clipPath id="clip0_46_398">
<rect width="64" height="64" fill="white" transform="translate(18 18)"/>
</clipPath>
</defs>
</svg>
