<svg width="20" height="20" viewBox="0 0 20 20" fill="none" xmlns="http://www.w3.org/2000/svg">
<path fill-rule="evenodd" clip-rule="evenodd" d="M14.8125 4.875C14.8125 1.9375 12.25 1.0625 12.25 1.0625V3.625H11.125V0.5C11.125 0.1875 10.9375 0 10.5625 0H9.4375C9.125 0 8.875 0.1875 8.875 0.5V3.5625H7.75V1C7.75 1 5.1875 1.875 5.1875 4.8125C5.1875 4.8125 4.375 4.9375 4.375 6.0625H15.625C15.5625 5 14.8125 4.875 14.8125 4.875ZM10 12.5C4.5 12.5 0 14.75 0 17.5V20H20V17.5C20 14.75 15.5 12.5 10 12.5ZM14.5 7.1875C14.5 9.4375 12.5 11.25 10 11.25C7.5 11.25 5.5 9.4375 5.5 7.1875H14.5Z" fill="white"/>
</svg>
