<svg width="100" height="100" viewBox="0 0 100 100" fill="none" xmlns="http://www.w3.org/2000/svg">
<rect width="100" height="100" rx="10" fill="url(#paint0_linear_46_412)"/>
<g clip-path="url(#clip0_46_412)">
<path d="M82.0002 60.425V72.2804C81.7341 73.3426 81.4053 74.3735 80.6382 75.2326C79.7615 76.2166 78.6969 76.982 77.3975 77.0289C74.3916 77.1226 71.3701 77.0601 68.5051 77.0601C68.5364 75.217 68.5991 73.3426 68.5991 71.4526C68.6147 66.8448 68.5991 62.2213 68.6147 57.6135C68.6147 55.8953 68.4895 54.2083 67.9259 52.5839C67.8946 52.4902 67.9102 52.3808 67.8789 52.209C70.5404 52.3652 73.2175 51.8185 75.7693 52.7713C79.2135 54.0365 81.2644 56.5201 81.8906 60.1595C81.922 60.2376 81.9689 60.3313 82.0002 60.425Z" fill="white"/>
<path d="M64.8884 75.0137C64.8884 76.4664 64.1995 77.1537 62.7435 77.1537C58.5009 77.1537 54.2426 77.1537 49.9999 77.1537C45.7729 77.1537 41.5459 77.1537 37.3189 77.1537C35.7846 77.1537 35.1115 76.482 35.1115 74.9513C35.1115 68.9064 35.0958 62.8615 35.1115 56.8167C35.1271 52.2869 37.9764 48.6944 42.36 47.6635C43.0175 47.5073 43.722 47.4604 44.3952 47.4448C48.1212 47.4292 51.8473 47.4136 55.5733 47.4448C60.0508 47.476 63.6203 50.3345 64.6379 54.6455C64.8101 55.364 64.8571 56.1294 64.8571 56.8635C64.904 62.924 64.8884 68.9689 64.8884 75.0137Z" fill="white"/>
<path d="M61.1155 34.012C61.1312 40.1193 56.1371 45.1333 50.0157 45.1645C43.9257 45.1957 38.8376 40.0881 38.8846 33.9807C38.9316 27.9202 43.9257 23 50.0157 23C56.1057 23.0156 61.1155 27.9827 61.1155 34.012Z" fill="white"/>
<path d="M31.417 57.0666C31.37 62.5179 31.3857 67.9536 31.4013 73.4049C31.4013 74.6232 31.4953 75.8416 31.5422 77.1536C29.5383 77.1536 27.4561 77.1693 25.3739 77.138C24.2937 77.1224 23.1821 77.1849 22.1489 76.935C19.5501 76.2946 18.0002 74.1546 17.9845 71.4212C17.9688 68.2035 17.9845 64.9702 17.9845 61.7525C18.0002 56.3481 21.8671 52.365 27.2839 52.2401C28.8808 52.1932 30.4776 52.2401 32.1528 52.2401C32.0119 52.7399 31.8397 53.146 31.7771 53.5677C31.6518 54.7236 31.4326 55.8951 31.417 57.0666Z" fill="white"/>
<path d="M38.7909 41.6342C38.744 46.2109 34.9866 49.944 30.4622 49.8971C25.8751 49.8503 22.1491 46.1171 22.1804 41.5874C22.2273 36.9795 25.9847 33.2777 30.5874 33.3401C35.1588 33.4026 38.8379 37.1201 38.7909 41.6342Z" fill="white"/>
<path d="M77.82 41.5876C77.8356 46.1329 74.1096 49.8661 69.5382 49.8973C65.0137 49.9285 61.2564 46.1954 61.225 41.6188C61.1781 37.0735 64.9198 33.3403 69.5068 33.3247C74.0783 33.3247 77.8043 37.0266 77.82 41.5876Z" fill="white"/>
</g>
<defs>
<linearGradient id="paint0_linear_46_412" x1="0" y1="100" x2="100" y2="0" gradientUnits="userSpaceOnUse">
<stop stop-color="#2E57FD"/>
<stop offset="1" stop-color="#1CD4DC"/>
</linearGradient>
<clipPath id="clip0_46_412">
<rect width="64" height="64" fill="white" transform="translate(18 18)"/>
</clipPath>
</defs>
</svg>
