<svg width="20" height="20" viewBox="0 0 20 20" fill="none" xmlns="http://www.w3.org/2000/svg">
<path d="M10 0C5.1875 0 1.25 2 1.25 4.4375C1.25 6.875 5.1875 8.875 10 8.875C14.8125 8.875 18.75 6.875 18.75 4.4375C18.75 2 14.8125 0 10 0ZM1.25 6.6875V10C1.25 12.4375 5.1875 14.4375 10 14.4375C14.8125 14.4375 18.75 12.4375 18.75 10V6.6875C18.75 9.125 14.8125 11.125 10 11.125C5.1875 11.125 1.25 9.125 1.25 6.6875ZM1.25 12.25V15.5625C1.25 18 5.1875 20 10 20C14.8125 20 18.75 18 18.75 15.5625V12.25C18.75 14.6875 14.8125 16.6875 10 16.6875C5.1875 16.6875 1.25 14.6875 1.25 12.25Z" fill="white"/>
</svg>
