<svg width="100" height="100" viewBox="0 0 100 100" fill="none" xmlns="http://www.w3.org/2000/svg">
<rect width="100" height="100" rx="10" fill="url(#paint0_linear_46_431)"/>
<path d="M75.6519 69.1666C75.6686 73.2887 72.5144 75.6584 69.1768 75.7419C69.0433 75.7419 68.8931 75.7252 68.6928 75.7085V74.8907C68.6928 60.2717 68.6928 45.6527 68.6928 31.0503C68.6928 27.963 67.074 25.5098 64.3371 24.5919C63.486 24.3082 62.5348 24.2081 61.6336 24.2081C51.3702 24.1747 41.1069 24.1914 30.8435 24.1914H29.8589C30.0091 23.4905 30.0591 22.8229 30.2761 22.2222C31.1272 19.9525 32.8461 18.6508 35.1658 18.1335C35.2993 18.1001 35.4328 18.0501 35.5663 18H69.9277C70.3116 18.1001 70.6954 18.1836 71.0626 18.3004C73.8996 19.1682 75.6352 21.5046 75.6352 24.5085C75.6519 29.248 75.6352 34.0042 75.6352 38.7437C75.6352 48.8902 75.6185 59.0368 75.6519 69.1666Z" fill="white"/>
<path d="M64.5708 55.2318V31.117C64.5708 29.2313 63.6696 28.3301 61.7838 28.3301C49.7849 28.3301 37.7859 28.3301 25.8037 28.3301C23.9179 28.3301 23 29.2479 23 31.1337C23 47.1546 23 63.1588 23 79.1629C23 81.032 23.9346 81.9666 25.8037 81.9666C37.7859 81.9666 49.7515 81.9499 61.7338 81.9833C63.3526 81.9833 64.6209 80.982 64.6042 79.0795C64.5374 71.1358 64.5708 63.1921 64.5708 55.2318ZM54.491 62.291C54.2407 62.3577 53.957 62.3577 53.69 62.3577C50.5192 62.3577 47.3651 62.3577 44.1943 62.3577C40.9901 62.3577 37.7859 62.3577 34.5651 62.3577C33.2133 62.3577 32.3121 61.54 32.2954 60.3217C32.2954 59.0868 33.1966 58.2357 34.5317 58.2357C40.9734 58.2357 47.3984 58.2357 53.8402 58.2357C55.025 58.2357 55.8595 58.9533 56.0097 60.0547C56.1432 61.056 55.4923 62.024 54.491 62.291ZM54.4576 54.0469C54.224 54.097 53.957 54.1137 53.7233 54.1137C47.3484 54.1137 40.9734 54.1137 34.5984 54.1137C33.2133 54.1137 32.2954 53.2792 32.3121 52.0276C32.3288 50.8093 33.23 49.9916 34.5817 49.9916C37.7859 49.9916 40.9901 49.9916 44.211 49.9916C47.4652 49.9916 50.7027 49.9916 53.957 49.9916C55.0751 49.9916 55.8928 50.776 56.0263 51.8607C56.1432 52.8286 55.4589 53.7966 54.4576 54.0469ZM53.7567 45.8529C47.3484 45.8529 40.9233 45.8529 34.515 45.8529C33.4803 45.8529 32.746 45.3522 32.4289 44.4844C32.1452 43.7001 32.3288 42.7655 33.013 42.2816C33.4469 41.9812 34.031 41.7642 34.5484 41.7476C37.7525 41.6975 40.9567 41.7142 44.1776 41.7142C47.3651 41.7142 50.5525 41.7142 53.74 41.7142C55.1085 41.7142 56.0597 42.5653 56.0597 43.7835C56.0263 45.0018 55.0918 45.8529 53.7567 45.8529Z" fill="white"/>
<defs>
<linearGradient id="paint0_linear_46_431" x1="0" y1="100" x2="100" y2="0" gradientUnits="userSpaceOnUse">
<stop stop-color="#2E57FD"/>
<stop offset="1" stop-color="#1CD4DC"/>
</linearGradient>
</defs>
</svg>
