<svg width="70" height="70" viewBox="0 0 70 70" fill="none" xmlns="http://www.w3.org/2000/svg">
<rect width="70" height="70" rx="10" fill="url(#paint0_linear_46_524)"/>
<g clip-path="url(#clip0_46_524)">
<path d="M53.7417 25.1545C54.8685 25.1545 55.9952 25.1169 57.1095 25.167C57.9858 25.2046 58.6243 24.9415 58.9999 24.1273V23.3758C58.6243 22.5616 57.9858 22.2985 57.1095 22.3361C55.8575 22.3862 54.593 22.3486 53.2785 22.3486V18.8038C53.2785 18.6033 53.2785 18.4029 53.2785 18.19C53.266 17.3132 52.6775 16.7244 51.8012 16.7119C50.4491 16.6994 49.0844 16.7119 47.6572 16.7119V16.261C47.6572 15.1336 47.6196 14.0063 47.6697 12.8914C47.7073 12.0146 47.4444 11.3758 46.6306 11H45.8794C45.0656 11.3758 44.8027 12.0146 44.8403 12.8914C44.8904 14.1441 44.8528 15.4092 44.8528 16.6994H42.0359V16.261C42.0359 15.1336 41.9984 14.0063 42.0484 12.8914C42.086 12.0146 41.8231 11.3758 41.0093 11H40.2581C39.4444 11.3758 39.1814 12.0146 39.219 12.8914C39.2691 14.1441 39.2315 15.4092 39.2315 16.6994H36.4146V16.261C36.4146 15.1336 36.3771 14.0063 36.4271 12.8914C36.4647 12.0146 36.2018 11.3758 35.388 11H34.6368C33.8231 11.3758 33.5602 12.0146 33.5977 12.8914C33.6478 14.1441 33.6102 15.4092 33.6102 16.6994H30.7933V16.261C30.7933 15.1336 30.7558 14.0063 30.8059 12.8914C30.8434 12.0146 30.5805 11.3758 29.7667 11H29.0156C28.2018 11.3758 27.9389 12.0146 27.9764 12.8914C28.0265 14.1441 27.989 15.4092 27.989 16.6994H25.1846V16.261C25.1846 15.1336 25.147 14.0063 25.1971 12.8914C25.2347 12.0146 24.9717 11.3758 24.158 11H23.4068C22.593 11.3758 22.3301 12.0146 22.3677 12.8914C22.4178 14.1566 22.3802 15.4092 22.3802 16.7244C21.0406 16.7244 19.7511 16.7244 18.4616 16.7244C18.2738 16.7244 18.086 16.7119 17.8982 16.7495C17.2096 16.8873 16.7589 17.4509 16.7589 18.2025C16.7464 19.5428 16.7464 20.8956 16.7464 22.2359C16.7464 22.2484 16.7339 22.261 16.7088 22.3486H16.2581C15.0312 22.3486 13.7918 22.3486 12.5523 22.3486C11.6384 22.3486 11.0124 22.9374 11.0124 23.7516C11.0124 24.5658 11.6509 25.1545 12.5523 25.1545C13.917 25.1545 15.2941 25.1545 16.6963 25.1545V27.9729C15.8575 27.9729 15.0312 27.9729 14.2174 27.9729C13.629 27.9729 13.0281 27.9603 12.4397 27.9729C11.6384 27.9854 11.0249 28.5992 11.0249 29.3507C11.0124 30.1399 11.6259 30.7662 12.4522 30.7662C13.6916 30.7787 14.9185 30.7662 16.158 30.7662H16.7088V33.5846H15.7949C14.7307 33.5846 13.6666 33.5846 12.6024 33.5846C11.6634 33.5846 11.0124 34.1608 11.0249 35C11.0375 35.8142 11.6634 36.3904 12.5774 36.3904C13.7918 36.3904 15.0187 36.3904 16.2331 36.3904H16.7088V39.2088H16.2706C15.0312 39.2088 13.8043 39.2088 12.5649 39.2088C11.6509 39.2088 11.0249 39.7975 11.0249 40.6117C11.0249 41.4259 11.6634 42.0146 12.5649 42.0271C13.942 42.0271 15.3066 42.0271 16.7088 42.0271V44.833C15.3066 44.833 13.917 44.7954 12.5398 44.858C12.1517 44.8706 11.7135 45.0585 11.4131 45.309C10.9749 45.6848 10.8998 46.2234 11.1251 46.7745C11.3755 47.3507 11.8262 47.6514 12.4397 47.6514C13.6791 47.6639 14.906 47.6514 16.1454 47.6514H16.7213V48.1148C16.7213 49.3173 16.7213 50.5198 16.7213 51.7223C16.7213 52.6994 17.2972 53.2631 18.2613 53.2756C19.6009 53.2756 20.9404 53.2756 22.3426 53.2756V57.3215C22.3426 58.3486 22.8935 59 23.7573 59C24.6087 58.9875 25.147 58.3486 25.147 57.3466C25.147 56.1566 25.147 54.9666 25.147 53.7891V53.3132H27.9514V53.7516C27.9514 54.9916 27.9514 56.2192 27.9514 57.4593C27.9514 58.3737 28.5398 59 29.3536 59C30.1799 59 30.7558 58.3737 30.7558 57.4593C30.7558 56.0814 30.7558 54.7161 30.7558 53.3132H33.5727V56.833C33.5727 57.096 33.5602 57.3591 33.5727 57.6347C33.6102 58.3987 34.2112 59 34.9624 59.0125C35.726 59.0251 36.3645 58.4238 36.3771 57.6221C36.3896 56.2818 36.3771 54.9415 36.3896 53.5887C36.3896 53.5136 36.4021 53.4384 36.4021 53.3257H39.2065V54.428C39.2065 55.4551 39.194 56.4948 39.2065 57.5219C39.219 58.3862 39.8199 59.0125 40.6212 59C41.4099 58.9875 41.9984 58.3737 42.0109 57.5344C42.0234 56.2818 42.0109 55.0292 42.0109 53.7891V53.3132H44.8027C44.8153 53.4635 44.8278 53.6138 44.8278 53.7641C44.8278 55.0042 44.8278 56.2317 44.8278 57.4718C44.8278 58.3862 45.4162 59.0125 46.23 59.0125C47.0437 59.0125 47.6322 58.3737 47.6322 57.4718C47.6322 56.0939 47.6322 54.7286 47.6322 53.3006H49.1971C50.0359 53.3006 50.8872 53.3006 51.7261 53.3006C52.665 53.3006 53.2534 52.7244 53.2534 51.785C53.2534 50.5825 53.2534 49.38 53.2534 48.1775V47.6764C54.5555 47.6764 55.82 47.6388 57.0844 47.6889C57.9608 47.7265 58.5993 47.4635 58.9749 46.6493V45.8977C58.5993 45.0835 57.9608 44.8205 57.0844 44.858C55.8325 44.9081 54.568 44.8706 53.2785 44.8706V42.0647H53.7167C54.8434 42.0647 55.9702 42.0271 57.0844 42.0772C57.9608 42.1148 58.5993 41.8518 58.9749 41.0376V40.286C58.5993 39.4718 57.9608 39.2088 57.0844 39.2463C55.8325 39.2965 54.568 39.2589 53.2785 39.2589V36.4405H53.7167C54.8434 36.4405 55.9702 36.4029 57.0844 36.453C57.9608 36.4906 58.5993 36.215 58.9749 35.4134V34.6618C58.5993 33.8476 57.9608 33.5846 57.0844 33.6221C55.8325 33.6722 54.568 33.6347 53.2785 33.6347V30.8163H53.7167C54.8434 30.8163 55.9702 30.7787 57.0844 30.8288C57.9608 30.8664 58.5993 30.6033 58.9749 29.7891V29.0376C58.5993 28.2234 57.9608 27.9603 57.0844 27.9979C55.8325 28.048 54.568 28.0104 53.2785 28.0104V25.1545H53.7417ZM47.6572 46.023C47.6572 47.1127 47.1189 47.6639 46.0171 47.6639H24.0453C22.881 47.6639 22.3552 47.1378 22.3552 45.9854V24.0021C22.3552 22.8747 22.8935 22.3486 24.0203 22.3486C31.3442 22.3486 38.6681 22.3486 45.9921 22.3486C47.1189 22.3486 47.6572 22.8873 47.6572 24.0021C47.6572 31.3424 47.6572 38.6827 47.6572 46.023Z" fill="white"/>
<path d="M39.2187 29.4007C39.2312 30.1648 39.8321 30.7786 40.6459 30.7786C42.0231 30.7911 43.4002 30.7786 44.8024 30.7786V44.8078H42.0356V42.0521C42.0356 41.6012 42.0481 41.1502 42.0356 40.6993C42.0231 39.835 41.4221 39.2087 40.6084 39.2212C39.8196 39.2337 39.2312 39.8475 39.2312 40.6867C39.2187 42.0521 39.2312 43.4049 39.2312 44.8078H36.4519C36.4393 44.7076 36.4268 44.5824 36.4268 44.4696C36.4268 42.6784 36.4268 40.8746 36.4143 39.0834C36.4143 38.7953 36.5019 38.645 36.7649 38.5197C38.2672 37.7932 39.757 37.0417 41.2469 36.2776C41.8353 35.9769 42.1232 35.4007 42.0356 34.812C41.9479 34.2358 41.5348 33.7473 40.9589 33.6596C40.6334 33.6095 40.2578 33.6596 39.9699 33.7974C38.117 34.6867 36.2766 35.6262 34.4362 36.5531C33.8603 36.8412 33.6099 37.3298 33.6099 37.9686C33.6099 40.073 33.6099 42.1899 33.6099 44.2943V44.8454H25.1968V42.0521H25.635C26.8368 42.0521 28.0387 42.0521 29.2406 42.0521C30.1545 42.0521 30.7805 41.4759 30.793 40.6492C30.793 39.835 30.167 39.2462 29.2531 39.2337C27.9135 39.2337 26.5739 39.2337 25.1968 39.2337V25.1794H27.9761V25.6179C27.9761 26.8204 27.9761 28.0229 27.9761 29.2254C27.9761 30.1398 28.5645 30.7661 29.3783 30.7786C30.2046 30.7786 30.7805 30.1523 30.793 29.2379C30.793 27.8976 30.793 26.5573 30.793 25.192H33.6099V25.6179C33.6099 27.384 33.5974 29.1502 33.6224 30.9164C33.6224 31.2295 33.5348 31.3799 33.2594 31.5176C31.7695 32.2442 30.2922 32.9832 28.8149 33.7222C28.2265 34.0229 27.926 34.5865 28.0012 35.1753C28.0763 35.764 28.5145 36.2776 29.1029 36.3527C29.4159 36.3903 29.7789 36.3527 30.0544 36.2275C31.9073 35.3256 33.7476 34.3986 35.588 33.4842C36.1639 33.1961 36.4268 32.7202 36.4268 32.0813C36.4268 29.9519 36.4268 27.835 36.4268 25.7055V25.1794H44.8274V27.9728H42.1232C41.635 27.9728 41.1592 27.9602 40.671 27.9728C39.8321 27.9978 39.2187 28.6116 39.2187 29.4007Z" fill="white"/>
</g>
<defs>
<linearGradient id="paint0_linear_46_524" x1="0" y1="70" x2="70" y2="0" gradientUnits="userSpaceOnUse">
<stop stop-color="#2E57FD"/>
<stop offset="1" stop-color="#1CD4DC"/>
</linearGradient>
<clipPath id="clip0_46_524">
<rect width="48" height="48" fill="white" transform="translate(11 11)"/>
</clipPath>
</defs>
</svg>
