<svg width="70" height="70" viewBox="0 0 70 70" fill="none" xmlns="http://www.w3.org/2000/svg">
<rect width="70" height="70" rx="10" fill="url(#paint0_linear_46_543)"/>
<g clip-path="url(#clip0_46_543)">
<path d="M35.0359 11C21.8084 10.9857 11.0431 21.7143 11.0001 34.9429C10.9572 48.1572 21.7368 58.9714 34.9787 59C48.2062 59.0286 59.0144 48.2286 59.0144 35C59.0001 21.7857 48.2492 11.0143 35.0359 11ZM26.0887 16.4429C25.2584 18.0429 24.4567 19.6 23.6121 21.2143C22.7389 20.8572 21.8227 20.5 20.8206 20.1C22.4239 18.5572 24.1561 17.4 26.0887 16.4429ZM24.7717 33.2572C24.9721 30.6143 25.2727 28.0286 25.9169 25.5429C28.3792 25.8572 30.7842 26.1572 33.2465 26.4714V33.2572H24.7717ZM33.2465 36.7429V43.4857C30.7985 43.8 28.3792 44.1143 25.9026 44.4286C25.2441 41.9714 24.8576 39.4 24.7574 36.7429H33.2465ZM15.2948 29.1C15.8817 26.9286 16.8981 24.9572 18.1865 23.1143C18.4013 22.8 18.5587 22.7572 18.9166 22.9143C20.0189 23.4286 21.1355 23.8714 22.2378 24.3714C22.381 24.4286 22.5671 24.6857 22.5385 24.7857C21.8227 27.5 21.4648 30.2714 21.3216 33.0714C21.3216 33.1286 21.293 33.1714 21.2787 33.2429H14.3929C14.7079 31.8286 14.9369 30.4429 15.2948 29.1ZM14.5074 36.7429H21.1642C21.5936 39.6429 22.0088 42.5429 22.4382 45.4714C21.1642 46.0143 19.8185 46.6 18.4156 47.2C16.168 44.1 14.5504 40.7429 14.5074 36.7429ZM20.792 49.8857C21.8084 49.4714 22.7246 49.1 23.5978 48.7572C24.4424 50.3857 25.2441 51.9429 26.0744 53.5286C24.1561 52.6286 22.4382 51.4143 20.792 49.8857ZM33.2608 55.2714C29.9825 53.7714 28.4221 50.9286 27.0335 47.8429C29.1093 47.3572 31.1707 47.1286 33.2608 47.0286V55.2714ZM33.2608 23.0143C31.185 22.7572 29.1379 22.5 27.0049 22.2286C28.4221 19.0572 29.9968 16.2143 33.2608 14.7143V23.0143ZM51.7135 22.9714C53.8465 25.9857 55.1206 29.3286 55.4642 33.0143C55.4785 33.0857 55.4642 33.1572 55.4499 33.2572H48.7073C48.607 32.1714 48.5641 31.1 48.4066 30.0429C48.1489 28.3429 47.8054 26.6429 47.4761 24.9429C47.4045 24.6 47.4332 24.4572 47.7911 24.3143C48.922 23.8572 50.0243 23.3714 51.1266 22.8714C51.3556 22.8 51.5274 22.7 51.7135 22.9714ZM49.1797 20.0857C48.1919 20.4857 47.2757 20.8572 46.3881 21.2143C45.5578 19.6 44.7419 18.0429 43.9115 16.4572C45.8585 17.3857 47.5906 18.5714 49.1797 20.0857ZM36.7538 14.8143C38.7723 15.2 41.5065 18.4286 42.981 22.2286C40.8767 22.5 38.8438 22.7572 36.7538 23.0143V14.8143ZM36.7395 26.4714C39.1874 26.1572 41.6211 25.8429 44.0977 25.5286C44.7705 28 45.1427 30.5857 45.2429 33.2429H36.7395V26.4714ZM45.2286 36.7429C45.1284 39.3857 44.7562 41.9572 44.0977 44.4143C41.6354 44.1 39.2161 43.7857 36.7538 43.4714V36.7429H45.2286ZM36.7395 55.2857V46.9429C38.8152 47.2 40.848 47.4572 43.024 47.7286C41.6067 50.9143 40.032 53.7572 36.7395 55.2857ZM43.9259 53.5429C44.7562 51.9572 45.5578 50.4 46.4168 48.7572C47.29 49.1 48.2205 49.4714 49.2226 49.8857C47.5906 51.4143 45.8585 52.6 43.9259 53.5429ZM51.5704 47.2C50.1674 46.6 48.8218 46.0143 47.5477 45.4714C47.9772 42.5714 48.4066 39.6714 48.8361 36.7429H55.4928C55.1492 40.6286 53.8465 44.1 51.5704 47.2Z" fill="white"/>
</g>
<defs>
<linearGradient id="paint0_linear_46_543" x1="0" y1="70" x2="70" y2="0" gradientUnits="userSpaceOnUse">
<stop stop-color="#2E57FD"/>
<stop offset="1" stop-color="#1CD4DC"/>
</linearGradient>
<clipPath id="clip0_46_543">
<rect width="48" height="48" fill="white" transform="translate(11 11)"/>
</clipPath>
</defs>
</svg>
