<svg width="70" height="70" viewBox="0 0 70 70" fill="none" xmlns="http://www.w3.org/2000/svg">
<rect width="70" height="70" rx="10" fill="url(#paint0_linear_46_534)"/>
<g clip-path="url(#clip0_46_534)">
<path d="M58.771 32.3158C56.5514 26.79 54.3462 21.2642 52.1266 15.7241C51.74 14.765 51.1958 14.3928 50.1505 14.3928C46.8856 14.3928 43.6063 14.3928 40.3414 14.3928C39.9834 14.3928 39.7972 14.3069 39.6254 13.949C38.6946 12.0593 37.1338 11 35.0001 11C32.8665 11 31.3056 12.0593 30.3605 13.9776C30.1887 14.3355 29.9882 14.4214 29.6302 14.4071C26.3939 14.3928 23.1576 14.4071 19.9214 14.4071C18.7328 14.4071 18.2603 14.722 17.8163 15.8387C15.6684 21.2356 13.5061 26.6326 11.3295 32.0295C11.0144 32.8026 10.9285 33.5613 11.0431 34.3773C11.6159 38.4715 14.981 41.6209 19.0192 41.8357C23.1576 42.0647 26.8378 39.3591 27.8545 35.3507C28.1696 34.1196 28.1696 32.9314 27.6397 31.7003C26.2507 28.422 24.9619 25.0865 23.6445 21.7796C23.129 20.4912 22.6135 19.2028 22.0836 17.8715H30.1457C30.7042 19.2601 31.6636 20.2908 33.0669 20.892C33.1815 20.935 33.2531 21.207 33.2388 21.3788C33.0956 23.9412 32.9524 26.518 32.7949 29.0805C32.5228 33.7474 32.2507 38.4286 31.9786 43.0954C31.8354 45.5148 31.6922 47.9341 31.549 50.425C29.802 50.425 28.1266 50.3964 26.4512 50.4393C25.6206 50.4536 24.7615 50.5109 23.9452 50.6684C22.098 51.0262 21.2674 52.0999 21.2531 53.9752C21.2531 55.0632 21.2388 56.1512 21.2531 57.2392C21.2674 58.2699 21.9834 58.9857 23.0144 59C30.9906 59 38.9524 59 46.9285 59C47.9595 59 48.6899 58.2842 48.6899 57.2392C48.7042 56.0653 48.7042 54.8771 48.6899 53.7032C48.6612 52.2144 47.9452 51.2553 46.5276 50.7972C46.1266 50.6684 45.697 50.5395 45.2817 50.5395C43.2197 50.4823 41.1433 50.4536 39.0669 50.425C38.8521 50.425 38.6517 50.425 38.4082 50.425C38.1934 46.7316 37.9786 43.0954 37.7638 39.4593C37.5634 35.9949 37.3629 32.5449 37.1481 29.0805C36.9906 26.518 36.8474 23.9412 36.7042 21.3788C36.6899 21.2213 36.7614 20.9493 36.876 20.892C38.2794 20.2765 39.2388 19.2458 39.7973 17.8571H47.8307C47.7591 18.0576 47.7018 18.2293 47.6302 18.3868C45.8259 22.9105 44.0216 27.4342 42.203 31.9436C41.8736 32.7453 41.7877 33.5327 41.9023 34.3916C42.4321 38.4286 45.8545 41.6209 49.907 41.8214C54.1027 42.0218 57.8545 39.2302 58.7424 35.1933C58.9858 34.2627 59.172 33.3036 58.771 32.3158ZM23.8736 31.5285H15.2388C16.6564 27.9639 18.0741 24.4423 19.549 20.7346C21.024 24.428 22.4416 27.9496 23.8736 31.5285ZM46.1266 31.5142C47.5586 27.9496 48.9619 24.4137 50.4369 20.7346C51.9118 24.4137 53.3151 27.9353 54.7471 31.5142H46.1266Z" fill="white"/>
</g>
<defs>
<linearGradient id="paint0_linear_46_534" x1="0" y1="70" x2="70" y2="0" gradientUnits="userSpaceOnUse">
<stop stop-color="#2E57FD"/>
<stop offset="1" stop-color="#1CD4DC"/>
</linearGradient>
<clipPath id="clip0_46_534">
<rect width="48" height="48" fill="white" transform="translate(11 11)"/>
</clipPath>
</defs>
</svg>
