<svg width="70" height="70" viewBox="0 0 70 70" fill="none" xmlns="http://www.w3.org/2000/svg">
<rect width="70" height="70" rx="10" fill="#2464F8"/>
<rect width="70" height="70" rx="10" fill="url(#paint0_linear_46_477)"/>
<g clip-path="url(#clip0_46_477)">
<path d="M58.9 45.0769C58.3992 40.5073 54.9063 36.5636 50.4243 35.5621C49.598 35.3743 48.7341 35.3117 47.8703 35.224C45.6168 34.9862 43.8139 32.7702 44.2021 30.5292C44.3398 29.7029 44.7404 28.9142 45.0909 28.1254C45.6794 26.7858 46.1426 25.4212 46.2302 23.9564C46.6559 17.0581 40.8343 11.4118 33.9611 12.0503C26.3116 12.7639 21.6794 20.7764 24.6715 27.5495C25.0221 28.3383 25.3601 29.1145 25.6731 29.9157C26.4744 31.9689 24.5964 34.9611 22.5557 35.1489C21.5667 35.2365 20.5651 35.3367 19.5886 35.5621C13.742 36.8891 9.96105 42.886 11.2506 48.7452C12.5651 54.7671 18.1739 58.5605 24.2584 57.5088C26.9376 57.0456 29.1661 55.8312 30.5432 53.3398C30.8938 52.7139 31.2944 52.1129 31.7326 51.5495C33.3977 49.4087 36.5902 49.3837 38.2553 51.5245C38.7936 52.2131 39.2318 52.9768 39.7075 53.7029C40.3585 54.6919 41.0847 55.5934 42.1363 56.1943C48.3585 59.7624 56.296 56.6826 58.4618 49.8469C58.6997 49.0832 58.8249 48.2819 59.0002 47.4932V45.5276C58.9626 45.3774 58.9251 45.2272 58.9 45.0769ZM22.2427 52.0628C19.1254 52.0378 16.6215 49.4963 16.6465 46.404C16.6715 43.3117 19.188 40.8077 22.2678 40.8328C25.4102 40.8578 27.9016 43.3492 27.8891 46.4541C27.864 49.5714 25.3226 52.1004 22.2427 52.0628ZM34.9751 44.3257C31.8703 44.3132 29.3664 41.7843 29.3789 38.6669C29.3914 35.5996 31.9329 33.0707 35.0002 33.0832C38.105 33.0832 40.634 35.6497 40.6215 38.7796C40.6089 41.8469 38.0675 44.3383 34.9751 44.3257ZM35.0127 28.8516C31.9078 28.8516 29.3789 26.3351 29.3789 23.2303C29.3789 20.1379 31.9329 17.5965 35.0252 17.609C38.0925 17.6215 40.6215 20.1505 40.634 23.2178C40.634 26.3351 38.1175 28.8516 35.0127 28.8516ZM47.7075 52.0628C44.6152 52.0503 42.1238 49.5214 42.1238 46.3915C42.1363 43.2991 44.6528 40.8203 47.8077 40.8328C50.875 40.8328 53.3664 43.3743 53.3664 46.4791C53.3664 49.5589 50.8249 52.0754 47.7075 52.0628Z" fill="white"/>
<path d="M25.0721 46.4787C25.0595 48.0186 23.7951 49.2705 22.2552 49.258C20.7027 49.2455 19.4383 47.9685 19.4508 46.4161C19.4633 44.8762 20.7278 43.6367 22.2677 43.6367C23.8451 43.6492 25.0846 44.9012 25.0721 46.4787Z" fill="white"/>
<path d="M50.5617 46.4664C50.5492 47.9938 49.2847 49.2583 47.7573 49.2708C46.2049 49.2708 44.9404 47.9938 44.9404 46.4289C44.9404 44.8889 46.1924 43.6495 47.7448 43.6495C49.2972 43.637 50.5617 44.9015 50.5617 46.4664Z" fill="white"/>
<path d="M37.8172 38.7296C37.8046 40.2695 36.5527 41.509 35.0003 41.509C33.4353 41.509 32.1834 40.2445 32.1959 38.6796C32.2084 37.1522 33.4729 35.8877 35.0128 35.8877C36.5652 35.9002 37.8297 37.1772 37.8172 38.7296Z" fill="white"/>
<path d="M37.8171 23.2552C37.8046 24.7951 36.5651 26.0345 35.0127 26.0471C33.4478 26.0471 32.1958 24.7951 32.1958 23.2302C32.2083 21.6903 33.4728 20.4383 35.0002 20.4258C36.5526 20.4258 37.8171 21.7028 37.8171 23.2552Z" fill="white"/>
</g>
<defs>
<linearGradient id="paint0_linear_46_477" x1="0" y1="70" x2="70" y2="0" gradientUnits="userSpaceOnUse">
<stop stop-color="#2E57FD"/>
<stop offset="1" stop-color="#1CD4DC"/>
</linearGradient>
<clipPath id="clip0_46_477">
<rect width="48" height="48" fill="white" transform="translate(11 11)"/>
</clipPath>
</defs>
</svg>
