<svg width="70" height="70" viewBox="0 0 70 70" fill="none" xmlns="http://www.w3.org/2000/svg">
<rect width="70" height="70" rx="10" fill="#2464F8"/>
<rect width="70" height="70" rx="10" fill="url(#paint0_linear_46_490)"/>
<g clip-path="url(#clip0_46_490)">
<path d="M58.9995 50.1867C58.9995 51.5758 58.0436 52.5065 56.6098 52.5204C53.2368 52.5204 49.8638 52.5204 46.4909 52.5204H31.0599C29.271 52.5204 28.4243 51.6452 28.4653 49.8394C28.5882 43.5605 33.4223 37.9484 39.5674 37.1705C42.6946 36.7816 45.8627 36.6704 48.9762 37.365C54.7526 38.6569 59.0269 44.1856 58.9995 50.1867Z" fill="white"/>
<path d="M32.8353 25.8349C32.849 30.7663 28.9161 34.767 24.082 34.7531C19.2615 34.7392 15.3696 30.7663 15.3696 25.821C15.3696 20.9729 19.3025 17.0139 24.123 17C28.8615 16.9861 32.8217 21.0007 32.8353 25.8349Z" fill="white"/>
<path d="M52.4586 25.8211C52.4722 30.7525 48.553 34.7532 43.7052 34.7532C38.8711 34.7393 34.9792 30.7386 35.0065 25.7794C35.0201 20.9453 39.0213 16.9724 43.8008 17.0001C48.553 17.0418 52.4449 21.0147 52.4586 25.8211Z" fill="white"/>
<path d="M24.3414 52.4922C24.2731 52.4922 24.1092 52.5061 23.9454 52.5061C20.4631 52.5061 16.9946 52.5061 13.5124 52.5061C11.86 52.5061 11.0134 51.617 10.9997 49.9223C10.9587 45.2131 12.7886 41.4903 16.6668 38.8787C18.3601 37.7396 20.2446 37.1145 22.2794 37.0034C24.4233 36.8784 26.5673 36.8228 28.6566 37.5313C28.8205 37.5868 28.9707 37.6424 29.1755 37.7257C25.3929 41.9626 23.522 46.7412 24.3414 52.4922Z" fill="white"/>
</g>
<defs>
<linearGradient id="paint0_linear_46_490" x1="0" y1="70" x2="70" y2="0" gradientUnits="userSpaceOnUse">
<stop stop-color="#2E57FD"/>
<stop offset="1" stop-color="#1CD4DC"/>
</linearGradient>
<clipPath id="clip0_46_490">
<rect width="48" height="48" fill="white" transform="translate(11 11)"/>
</clipPath>
</defs>
</svg>
