<svg width="70" height="70" viewBox="0 0 70 70" fill="none" xmlns="http://www.w3.org/2000/svg">
<rect width="70" height="70" rx="10" fill="#2464F8"/>
<rect width="70" height="70" rx="10" fill="url(#paint0_linear_46_502)"/>
<g clip-path="url(#clip0_46_502)">
<path d="M18.9961 26.4895C15.18 27.0179 11.6575 24.376 11.0939 20.56C11.0822 20.466 11.0352 20.3838 11.0117 20.3017V18.7165C11.1174 18.2938 11.1996 17.8711 11.3287 17.4484C12.2916 14.2664 15.3092 12.2586 18.7495 12.5169C21.8728 12.7518 24.5499 15.3467 24.9961 18.5521C25.5127 22.4152 22.8356 25.9611 18.9961 26.4895Z" fill="white"/>
<path d="M26.7923 45.2996C23.7277 39.9923 20.7101 34.732 17.6221 29.3896C20.3931 29.4248 22.7767 28.5559 24.808 26.6772C24.9137 26.8534 25.0076 26.9943 25.0898 27.1352C28.4949 33.053 31.9117 38.9708 35.3168 44.9003C35.4929 45.2174 35.6925 45.323 36.0448 45.323C38.7219 45.3113 41.3872 45.3113 44.0643 45.3113C45.2385 45.3113 45.7082 45.7575 45.8021 46.9199C45.9078 48.2585 46.0252 49.597 46.1426 50.9708H23.8686C23.9626 49.7262 24.0683 48.5168 24.1622 47.3074C24.1739 47.1313 24.1974 46.9669 24.2092 46.7907C24.2796 45.8279 24.8197 45.323 25.7943 45.323C26.0878 45.2878 26.3931 45.2996 26.7923 45.2996Z" fill="white"/>
<path d="M58.7063 24.4581C58.5066 24.6812 58.2366 24.8926 57.9548 24.9748C55.5947 25.6675 53.2229 26.3486 50.8511 27.0061C50.581 27.0765 50.2522 27.0765 49.9822 26.9944C47.6573 26.3486 45.3325 25.6675 43.0076 25.01C42.1857 24.7752 41.8335 24.1881 41.8569 23.3309H27.1211C27.5908 22.0628 27.8726 20.8182 27.8726 19.5149C27.8726 18.2233 27.6025 16.967 27.1094 15.7106H41.8335C41.7865 14.6069 42.4088 14.1607 43.3481 13.9024C45.4851 13.327 47.6104 12.6812 49.7474 12.0941C50.1231 11.9885 50.5693 11.9532 50.9333 12.0589C53.2699 12.693 55.583 13.3623 57.9078 14.0315C58.6123 14.2429 59.035 14.83 58.9881 15.4875C58.9411 16.145 58.4479 16.7086 57.7787 16.7908C57.5086 16.826 57.2151 16.7556 56.9567 16.6851C54.8902 16.0981 52.8119 15.511 50.7454 14.9239C50.581 14.8769 50.4049 14.8652 50.2405 14.8769C49.9822 14.9004 49.853 15.0296 49.853 15.3349C49.8648 18.1176 49.853 20.9122 49.8648 23.6949C49.8648 24.1294 50.1583 24.282 50.6984 24.1294C51.8256 23.8124 52.9411 23.4836 54.0683 23.1548C55.1485 22.8495 56.2288 22.5325 57.309 22.2507C57.8843 22.0981 58.4597 22.3799 58.765 22.873C59.0937 23.3779 59.0937 24.012 58.7063 24.4581Z" fill="white"/>
<path d="M45.0276 59.4837H24.9728C23.7634 59.4837 23.1998 58.8614 23.3055 57.652C23.4229 56.3956 23.5286 55.1275 23.6343 53.8242H46.3662C46.4249 54.4113 46.4718 54.9866 46.5188 55.5502C46.5775 56.2547 46.6362 56.9592 46.6949 57.652C46.8006 58.8614 46.2487 59.472 45.0276 59.4837Z" fill="white"/>
</g>
<defs>
<linearGradient id="paint0_linear_46_502" x1="0" y1="70" x2="70" y2="0" gradientUnits="userSpaceOnUse">
<stop stop-color="#2E57FD"/>
<stop offset="1" stop-color="#1CD4DC"/>
</linearGradient>
<clipPath id="clip0_46_502">
<rect width="48" height="48" fill="white" transform="translate(11 11)"/>
</clipPath>
</defs>
</svg>
