<svg width="70" height="70" viewBox="0 0 70 70" fill="none" xmlns="http://www.w3.org/2000/svg">
<rect width="70" height="70" rx="10" fill="#2464F8"/>
<rect width="70" height="70" rx="10" fill="url(#paint0_linear_46_514)"/>
<g clip-path="url(#clip0_46_514)">
<path d="M55.4423 22.4244H24.0541C24.0289 22.2492 24.0037 22.0991 24.0037 21.9489C23.7895 18.8832 23.5502 15.8175 23.3613 12.7518C23.3235 11.926 23.0464 11.3379 22.2907 11H13.0581C12.2394 11.3754 11.9371 12.0136 12.0127 12.8895C12.0505 13.365 12.0253 13.853 12.0253 14.341C12.0253 15.9552 12.4535 16.6309 13.4486 16.6184C14.431 16.6058 14.8467 15.9426 14.8467 14.366V13.8405H20.5777C20.5903 13.9531 20.6029 14.0407 20.6155 14.1408C20.9807 19.2586 21.346 24.3764 21.7113 29.5068C22.1269 35.2753 22.5174 41.0563 22.9456 46.8248C23.122 49.2148 24.2808 51.0292 26.3087 52.318C26.4472 52.4056 26.5858 52.4932 26.7243 52.5808C25.8048 54.683 26.0693 56.4849 27.4926 57.8113C28.7774 59.0125 30.6793 59.3003 32.2538 58.5245C34.1053 57.611 34.7603 56.097 34.458 53.3691H43.3253C42.8089 55.4088 43.3001 57.098 45.0635 58.2742C46.4868 59.2127 48.0487 59.2628 49.5097 58.3618C51.3865 57.2106 51.9155 55.4713 51.3991 53.3441C51.9785 53.3441 52.5327 53.3566 53.0743 53.3441C53.8048 53.3191 54.3842 52.7435 54.422 52.0302C54.4724 51.342 53.9812 50.7164 53.2758 50.5662C53.0743 50.5287 52.8728 50.5412 52.6712 50.5412C45.1895 50.5412 37.7077 50.5412 30.2385 50.5412C29.4324 50.5412 28.6766 50.4286 27.9713 50.0282C25.9938 48.902 25.5781 47.2252 25.6915 44.9228H26.2457C33.5385 44.9228 40.8314 44.9353 48.1116 44.9228C51.6384 44.9103 54.5858 42.3702 55.0896 38.9041C55.7949 34.0865 56.4751 29.269 57.1679 24.4515C57.3946 23 56.8908 22.4244 55.4423 22.4244ZM47.3937 53.3316C48.162 53.3441 48.7918 53.9948 48.7792 54.7456C48.7666 55.5089 48.1242 56.1345 47.3685 56.1345C46.6128 56.1345 45.9578 55.4963 45.9578 54.7456C45.9578 53.9823 46.6128 53.3316 47.3937 53.3316ZM30.4148 53.3316C31.1832 53.3441 31.8129 53.9823 31.8129 54.7456C31.8129 55.5214 31.1454 56.1721 30.3644 56.147C29.6087 56.122 28.9789 55.4713 28.9915 54.7205C29.0041 53.9572 29.6591 53.3316 30.4148 53.3316ZM42.8593 36.001C41.902 36.9896 40.9321 37.9656 39.9245 38.9166C39.3577 39.4546 38.5516 39.4171 37.9722 38.854C37.0275 37.9406 36.0954 37.0146 35.176 36.0761C34.584 35.4755 34.6092 34.6121 35.176 34.0615C35.7302 33.5235 36.5615 33.536 37.1787 34.0865C37.2794 34.1867 37.3802 34.2868 37.5817 34.4619V32.3973C37.5817 31.4088 37.5691 30.4327 37.5817 29.4442C37.5943 28.6184 38.2367 28.0052 39.0176 28.0302C39.7859 28.0428 40.3905 28.6559 40.4031 29.4567C40.4157 30.9333 40.4031 32.4223 40.4031 33.8989V34.4369C40.6047 34.2492 40.7432 34.1241 40.8818 34.0115C41.4864 33.5109 42.3177 33.5485 42.8341 34.0865C43.3505 34.6246 43.3883 35.4505 42.8593 36.001Z" fill="white"/>
</g>
<defs>
<linearGradient id="paint0_linear_46_514" x1="0" y1="70" x2="70" y2="0" gradientUnits="userSpaceOnUse">
<stop stop-color="#2E57FD"/>
<stop offset="1" stop-color="#1CD4DC"/>
</linearGradient>
<clipPath id="clip0_46_514">
<rect width="48" height="48" fill="white" transform="translate(11 11)"/>
</clipPath>
</defs>
</svg>
